<svg width="475" height="216" viewBox="0 0 475 216" fill="none" xmlns="http://www.w3.org/2000/svg">
<path d="M167.216 90.32C170 86.672 173.792 83.6 178.592 81.104C183.392 78.608 188.816 77.36 194.864 77.36C201.776 77.36 208.064 79.088 213.728 82.544C219.488 85.904 224 90.656 227.264 96.8C230.528 102.944 232.16 110 232.16 117.968C232.16 125.936 230.528 133.088 227.264 139.424C224 145.664 219.488 150.56 213.728 154.112C208.064 157.568 201.776 159.296 194.864 159.296C188.816 159.296 183.44 158.096 178.736 155.696C174.032 153.2 170.192 150.128 167.216 146.48V195.728H150.8V78.656H167.216V90.32ZM215.456 117.968C215.456 112.496 214.304 107.792 212 103.856C209.792 99.824 206.816 96.8 203.072 94.784C199.424 92.672 195.488 91.616 191.264 91.616C187.136 91.616 183.2 92.672 179.456 94.784C175.808 96.896 172.832 99.968 170.528 104C168.32 108.032 167.216 112.784 167.216 118.256C167.216 123.728 168.32 128.528 170.528 132.656C172.832 136.688 175.808 139.76 179.456 141.872C183.2 143.984 187.136 145.04 191.264 145.04C195.488 145.04 199.424 143.984 203.072 141.872C206.816 139.664 209.792 136.496 212 132.368C214.304 128.24 215.456 123.44 215.456 117.968ZM256.746 68.144C253.77 68.144 251.274 67.136 249.258 65.12C247.242 63.104 246.234 60.608 246.234 57.632C246.234 54.656 247.242 52.16 249.258 50.144C251.274 48.128 253.77 47.12 256.746 47.12C259.626 47.12 262.074 48.128 264.09 50.144C266.106 52.16 267.114 54.656 267.114 57.632C267.114 60.608 266.106 63.104 264.09 65.12C262.074 67.136 259.626 68.144 256.746 68.144ZM264.81 78.656V158H248.394V78.656H264.81ZM320.347 117.824L345.979 158H327.403L310.267 131.072L294.139 158H277.003L302.635 118.976L277.003 78.656H295.579L312.715 105.584L328.843 78.656H345.979L320.347 117.824ZM430.942 116.384C430.942 119.36 430.75 122.048 430.366 124.448H369.742C370.222 130.784 372.574 135.872 376.798 139.712C381.022 143.552 386.206 145.472 392.35 145.472C401.182 145.472 407.422 141.776 411.07 134.384H428.782C426.382 141.68 422.014 147.68 415.678 152.384C409.438 156.992 401.662 159.296 392.35 159.296C384.766 159.296 377.95 157.616 371.902 154.256C365.95 150.8 361.246 146 357.79 139.856C354.43 133.616 352.75 126.416 352.75 118.256C352.75 110.096 354.382 102.944 357.646 96.8C361.006 90.56 365.662 85.76 371.614 82.4C377.662 79.04 384.574 77.36 392.35 77.36C399.838 77.36 406.51 78.992 412.366 82.256C418.222 85.52 422.782 90.128 426.046 96.08C429.31 101.936 430.942 108.704 430.942 116.384ZM413.806 111.2C413.71 105.152 411.55 100.304 407.326 96.656C403.102 93.008 397.87 91.184 391.63 91.184C385.966 91.184 381.118 93.008 377.086 96.656C373.054 100.208 370.654 105.056 369.886 111.2H413.806ZM463.513 51.44V158H447.097V51.44H463.513Z" fill="black"/>
<rect x="40" y="48" width="80" height="80" fill="#D51D29"/>
<rect x="1" y="88" width="80" height="80" fill="#D51D29"/>
<rect x="41" y="88" width="40" height="40" fill="white"/>
<rect y="88" width="40" height="40" fill="#D51D29"/>
<rect y="128" width="40" height="40" fill="#D51D29"/>
<rect x="40" y="128" width="40" height="40" fill="#D51D29"/>
</svg>
